<?xml version="1.0" standalone="no"?>
<!DOCTYPE svg PUBLIC "-//W3C//DTD SVG 20010904//EN"
 "http://www.w3.org/TR/2001/REC-SVG-20010904/DTD/svg10.dtd">
<svg version="1.0" xmlns="http://www.w3.org/2000/svg"
 width="2282.000000pt" height="2281.000000pt" viewBox="0 0 2282.000000 2281.000000"
 preserveAspectRatio="xMidYMid meet">

<g transform="translate(0.000000,2281.000000) scale(0.100000,-0.100000)"
fill="#000000" stroke="none">
<path d="M11270 19729 c-201 -26 -480 -117 -659 -216 -50 -28 -98 -42 -230
-69 -159 -33 -168 -36 -206 -73 -54 -52 -119 -109 -141 -126 -28 -21 -19 -19
117 25 67 22 124 38 126 36 2 -1 -25 -24 -58 -51 l-62 -47 -76 6 -76 7 -86
-88 c-304 -311 -427 -488 -489 -708 -41 -143 -22 -262 72 -449 99 -197 173
-302 349 -495 134 -146 113 -143 -43 7 -299 289 -477 587 -478 802 0 202 119
465 300 663 53 57 332 305 450 400 l35 28 -30 -7 c-172 -39 -454 -188 -670
-353 -34 -26 -92 -67 -128 -91 -63 -42 -68 -47 -92 -114 -96 -271 -103 -479
-25 -765 12 -40 19 -76 16 -78 -15 -15 -104 165 -132 267 -25 92 -22 292 5
425 11 54 18 101 16 104 -3 2 -14 -4 -25 -14 -25 -22 -26 -6 -2 23 42 50 58
80 103 194 27 67 47 123 45 125 -6 6 -141 -142 -206 -225 -35 -45 -65 -80 -67
-79 -5 5 19 57 41 90 30 44 7 52 -38 14 -142 -120 -188 -179 -231 -298 -24
-66 -36 -79 -78 -79 -22 0 -34 -10 -62 -54 -39 -62 -55 -76 -55 -49 0 33 60
313 75 351 8 21 9 29 2 18 -55 -85 -91 -144 -112 -186 -35 -69 -74 -210 -81
-294 -4 -39 -21 -116 -40 -172 -19 -55 -34 -112 -34 -126 0 -14 18 -78 40
-142 39 -112 65 -176 171 -409 27 -59 49 -113 49 -120 0 -19 -57 50 -115 138
-73 111 -145 261 -185 385 l-34 105 -9 -40 c-11 -52 0 -239 19 -312 24 -93 69
-179 126 -240 l53 -57 -50 28 c-101 57 -204 149 -264 235 -14 18 -39 67 -57
108 -17 41 -34 71 -37 66 -8 -13 9 -103 33 -173 69 -199 155 -301 294 -346 28
-9 55 -19 60 -22 5 -3 -35 -22 -89 -43 -54 -21 -106 -46 -114 -55 -15 -15 -5
-16 134 -9 l149 7 -63 -68 c-80 -85 -131 -164 -215 -332 -112 -224 -148 -323
-154 -423 -5 -95 0 -132 78 -549 28 -146 70 -400 96 -565 25 -165 59 -365 75
-444 17 -79 29 -144 27 -146 -2 -1 -16 -7 -32 -12 -20 -6 -32 -18 -37 -36 -11
-40 9 -163 37 -231 28 -68 50 -172 63 -296 9 -79 6 -199 -15 -620 -8 -169 -20
-134 131 -385 56 -93 133 -230 171 -303 38 -73 77 -142 87 -153 14 -15 31 -19
79 -19 71 0 128 23 173 70 l28 29 53 -92 c102 -175 265 -511 449 -922 96 -216
160 -328 234 -407 l64 -69 19 -142 c33 -252 76 -620 83 -709 l7 -87 -88 -118
c-48 -65 -118 -150 -154 -190 -94 -101 -100 -117 -100 -260 l0 -118 -55 -29
c-185 -96 -575 -379 -1097 -797 -272 -217 -451 -350 -843 -624 -310 -218 -580
-419 -830 -620 -110 -89 -247 -196 -305 -239 -58 -44 -131 -101 -162 -128
-113 -97 -301 -234 -373 -271 -42 -22 -69 -27 -160 -32 -182 -10 -171 -5 -179
-78 -4 -34 -14 -91 -22 -127 -10 -44 -14 -110 -13 -205 3 -231 -35 -731 -115
-1530 -56 -553 -85 -962 -106 -1510 -6 -148 -15 -367 -21 -485 -5 -118 -14
-530 -19 -915 -9 -695 -21 -1063 -41 -1265 -11 -116 -77 -602 -86 -637 -5 -23
-3 -23 80 -23 l85 0 6 38 c3 20 13 95 22 167 8 71 16 131 18 132 2 2 6 -52 10
-119 3 -68 9 -144 12 -170 l7 -48 61 0 61 0 -2 73 c-12 337 -26 693 -39 962
-22 477 -28 1134 -15 1585 12 425 20 583 81 1590 22 360 44 736 50 835 6 99
14 415 17 703 l6 522 37 0 36 0 13 73 c7 39 17 111 24 158 l11 87 65 11 c37 7
95 16 131 22 48 7 79 19 120 47 30 20 57 40 60 43 3 4 36 29 73 58 69 52 208
161 217 171 3 3 25 21 50 40 25 19 47 37 50 40 4 5 91 75 202 164 14 11 36 28
48 36 13 8 28 20 34 25 6 6 52 42 101 80 50 38 92 72 95 76 8 9 409 307 525
389 58 41 114 82 124 90 11 8 29 22 41 30 12 8 30 22 40 30 10 8 28 22 40 30
12 8 28 20 34 25 6 6 31 26 56 45 25 19 61 48 80 65 20 16 55 46 80 65 24 19
48 40 54 45 12 11 125 105 141 118 6 4 24 19 40 33 17 14 50 42 75 62 25 20
47 39 50 42 3 3 41 34 85 70 44 35 82 67 85 70 3 3 25 21 50 40 25 19 47 37
50 40 3 3 41 35 85 70 44 36 82 67 85 70 7 7 133 112 162 135 7 6 58 46 113
89 173 138 240 190 274 216 18 14 38 30 44 36 29 26 180 134 188 134 5 0 9
-33 9 -74 l0 -75 -32 -3 c-28 -3 -42 -18 -125 -133 -51 -71 -139 -202 -195
-291 -92 -145 -107 -164 -162 -201 -34 -22 -72 -46 -86 -53 -14 -7 -27 -16
-30 -20 -3 -3 -50 -32 -105 -64 -90 -52 -106 -66 -160 -138 -44 -60 -73 -88
-110 -107 -56 -30 -171 -104 -227 -147 -20 -16 -80 -60 -134 -99 -53 -38 -115
-86 -138 -105 -64 -53 -331 -257 -376 -287 -25 -17 -147 -106 -205 -150 -17
-13 -55 -41 -85 -63 -30 -22 -75 -56 -100 -74 -50 -38 -166 -119 -340 -238
-223 -152 -338 -242 -505 -399 -55 -52 -166 -149 -246 -216 -80 -67 -158 -140
-173 -163 -49 -74 -59 -176 -91 -890 -8 -190 -19 -538 -24 -775 -9 -402 -12
-449 -45 -715 -128 -1018 -196 -1731 -251 -2630 -14 -228 -33 -489 -41 -580
-8 -91 -18 -297 -21 -457 l-6 -293 1047 0 c575 0 1046 1 1046 3 0 1 -14 65
-30 142 -83 380 -105 497 -160 830 -32 198 -87 502 -120 675 -48 242 -64 349
-70 460 -5 80 -16 174 -25 210 -14 57 -99 448 -155 715 -10 50 -35 196 -55
325 -66 434 -104 594 -176 740 -20 41 -21 54 -16 154 11 188 3 211 166 -464
186 -772 234 -971 346 -1420 68 -272 142 -561 164 -641 71 -257 99 -377 160
-679 66 -327 179 -864 216 -1027 l5 -23 3515 0 3514 0 25 82 c65 215 162 553
246 858 230 836 212 779 304 965 46 94 112 227 146 298 35 70 65 126 67 124 2
-2 -25 -82 -58 -178 -230 -651 -372 -1203 -499 -1932 l-37 -218 75 3 76 3 62
325 c105 549 206 963 341 1400 100 325 196 581 154 410 -64 -258 -110 -464
-106 -468 3 -3 5 1 5 9 0 8 6 26 14 41 8 14 19 43 26 65 7 21 16 43 20 48 4 6
17 39 30 75 13 36 29 73 36 83 15 23 19 6 74 -338 62 -394 140 -795 210 -1085
74 -308 91 -390 102 -477 l12 -93 1217 0 1216 0 -3 23 c-4 23 -57 461 -74 607
-28 244 -41 420 -46 655 -5 215 -10 281 -30 380 -31 159 -60 360 -83 586 -46
429 -58 722 -71 1669 -13 1046 -25 1464 -55 1905 -7 110 -11 203 -8 207 2 5
13 8 24 8 11 0 74 13 139 30 67 17 145 30 179 30 49 0 61 3 61 16 0 31 35 10
38 -23 3 -33 -41 -259 -98 -498 -76 -321 -100 -483 -100 -658 1 -134 16 -350
28 -392 l9 -30 13 45 c7 25 20 95 30 155 l17 110 6 -95 c4 -52 9 -176 12 -275
3 -99 10 -270 15 -380 6 -110 15 -299 20 -420 13 -272 53 -826 85 -1205 69
-795 124 -1209 270 -2062 36 -207 65 -379 65 -382 0 -3 35 -6 78 -6 l78 0 -32
228 c-108 768 -139 993 -179 1307 -79 624 -124 1069 -170 1710 -65 896 -118
1555 -146 1820 -34 328 -35 310 31 565 75 286 90 367 90 470 0 83 -3 99 -20
118 -12 12 -30 22 -41 22 -11 0 -35 6 -54 14 -45 19 -249 155 -295 196 -83 74
-226 191 -269 218 -14 9 -28 19 -31 22 -3 3 -32 23 -65 44 -33 22 -157 112
-275 201 -254 191 -264 198 -535 380 -286 192 -604 422 -825 599 -42 34 -91
72 -109 86 -18 14 -38 30 -44 36 -7 5 -52 40 -102 77 -49 37 -94 70 -100 74
-5 5 -50 35 -100 68 -49 33 -92 62 -95 65 -3 3 -45 32 -95 65 -83 55 -363 260
-375 274 -3 4 -25 22 -50 41 -25 19 -54 42 -65 52 -93 77 -191 161 -249 212
-84 74 -91 81 -151 131 -26 22 -59 50 -74 63 -14 13 -48 42 -75 65 -27 23 -69
60 -94 82 -69 61 -84 74 -131 113 -57 48 -173 150 -235 207 -12 11 -125 105
-141 118 -5 4 -23 19 -40 33 -16 13 -66 53 -110 87 -89 69 -232 207 -260 251
-16 24 -23 28 -55 23 l-36 -5 -38 114 -37 113 -52 26 c-29 14 -69 28 -89 32
-35 5 -38 8 -38 37 1 70 31 331 56 481 27 156 28 161 65 200 165 176 173 190
305 535 14 36 31 79 39 95 7 17 20 55 30 85 10 30 21 60 25 65 4 6 11 21 15
35 4 14 21 53 36 88 16 34 29 65 29 68 0 3 8 24 18 47 10 23 36 86 57 140 34
86 41 97 59 92 12 -4 95 -42 186 -87 143 -70 174 -81 231 -86 127 -9 160 20
255 224 62 134 61 132 84 194 11 30 25 64 30 75 36 74 220 550 230 595 7 30
16 161 20 290 8 261 8 258 97 500 71 193 78 222 78 340 0 95 -2 108 -25 143
-36 53 -90 77 -177 77 l-71 0 20 63 c11 34 30 96 43 137 13 41 40 129 60 195
62 200 103 352 140 520 76 349 77 357 82 665 5 401 -9 497 -118 822 -40 120
-49 160 -49 217 0 58 3 69 15 65 21 -8 19 1 -15 85 -17 40 -30 77 -30 82 0 21
-56 92 -79 101 -42 15 -257 38 -368 38 -126 0 -221 -18 -349 -66 -77 -29 -264
-113 -339 -153 -29 -15 29 39 90 84 197 145 373 205 598 205 125 0 212 -17
288 -56 80 -40 88 -30 36 47 l-44 67 44 5 c38 4 60 -2 139 -39 52 -24 94 -40
94 -36 0 4 -18 27 -40 50 -22 24 -40 46 -40 48 0 2 19 13 43 24 44 21 69 41
100 77 l19 21 -44 -5 c-24 -3 -81 -13 -128 -23 l-84 -18 -52 43 -53 42 87 7
c48 3 116 14 152 23 l65 18 -80 12 c-44 6 -96 12 -116 12 -30 1 -40 8 -68 46
-18 25 -33 45 -34 45 -1 0 -47 9 -102 19 -341 66 -637 12 -902 -166 -92 -61
-409 -361 -456 -431 -13 -20 -45 -69 -71 -109 -61 -96 -76 -102 -24 -11 124
222 201 330 310 434 271 260 542 373 896 374 61 0 112 4 112 8 0 35 -72 199
-113 256 l-20 28 24 -7 c13 -4 61 -24 106 -45 76 -36 93 -39 93 -18 0 11 -99
59 -210 101 -300 114 -528 133 -745 62 -90 -30 -284 -128 -396 -200 -157 -102
-295 -214 -463 -374 -96 -93 -62 -37 42 68 175 176 504 417 697 511 153 74
233 93 395 93 161 0 222 -10 399 -69 223 -75 335 -135 329 -177 -2 -12 -13
-26 -25 -32 -20 -11 -19 -13 33 -44 29 -17 74 -47 99 -66 25 -19 48 -35 51
-35 4 0 4 25 1 55 -11 112 -83 190 -249 273 -106 53 -310 125 -457 162 -87 22
-259 86 -276 103 -6 6 39 8 130 4 176 -7 313 -40 517 -125 79 -33 173 -69 208
-80 36 -11 74 -23 85 -27 18 -6 18 -5 4 7 -9 7 -24 28 -33 46 -26 50 -45 70
-109 113 -53 35 -90 54 -205 106 -181 80 -527 96 -785 34 -94 -22 -210 -10
-272 29 -22 14 -62 37 -90 53 l-50 28 308 -5 c190 -3 307 -1 307 5 0 5 -8 12
-17 15 -10 3 -45 19 -78 34 -76 36 -151 58 -237 70 -37 5 -100 21 -140 34
-143 48 -150 47 -295 -29 -70 -38 -198 -114 -283 -171 -345 -228 -559 -452
-692 -724 -120 -245 -151 -367 -164 -644 -8 -165 6 -314 41 -453 14 -53 23
-98 21 -100 -7 -7 -45 94 -65 172 -35 139 -44 247 -38 445 10 331 88 587 253
837 67 102 252 292 364 375 143 106 326 226 434 287 63 34 103 62 95 65 -8 3
-34 7 -59 8 l-45 3 63 14 c48 10 62 18 62 31 0 17 4 17 51 5 45 -12 55 -12 92
5 l42 18 -55 25 c-30 13 -79 32 -107 41 -29 10 -53 20 -53 22 0 2 36 1 80 -2
71 -6 80 -5 74 9 -8 21 -76 52 -149 67 -34 8 -123 13 -205 13 -162 -1 -256
-16 -378 -64 l-77 -29 65 5 65 4 -45 -15 c-26 -9 -59 -12 -79 -9 -27 5 -50 -2
-117 -36 -46 -23 -81 -46 -79 -50 3 -3 -17 -15 -43 -26 -53 -22 -143 -82 -272
-182 -112 -87 -144 -115 -280 -251 -142 -142 -167 -170 -261 -295 -90 -118
-119 -165 -171 -265 l-39 -75 4 60 c13 178 178 436 443 695 213 208 432 371
642 478 102 53 291 122 333 122 14 0 19 4 14 9 -20 20 -286 44 -415 38 -209
-10 -244 -23 -435 -166 -213 -159 -419 -375 -611 -638 -110 -150 -131 -184
-198 -320 -102 -205 -133 -342 -123 -547 13 -286 122 -603 293 -856 119 -176
99 -166 291 -139 87 12 161 25 166 29 4 3 -1 26 -12 51 -28 62 -77 237 -96
343 -37 203 -35 525 4 691 20 83 79 250 87 243 2 -3 -10 -58 -26 -123 -17 -66
-35 -164 -41 -220 -14 -126 -6 -392 15 -510 29 -157 82 -345 122 -428 17 -36
21 -38 54 -35 19 2 192 24 383 48 334 43 348 46 344 65 -52 210 -68 402 -48
545 34 237 163 482 356 676 82 82 232 200 243 190 1 -2 -46 -52 -106 -112
-179 -181 -257 -281 -336 -428 -130 -241 -157 -493 -85 -798 20 -84 22 -88 48
-88 42 0 471 29 516 35 22 3 146 12 275 20 129 9 293 25 364 35 71 11 130 19
130 18 17 -39 56 -106 90 -153 25 -33 43 -61 41 -63 -2 -2 -12 1 -24 7 -12 7
-22 7 -26 2 -10 -17 36 -120 64 -144 35 -29 51 -58 51 -91 l0 -26 -47 30 c-26
16 -48 28 -50 26 -8 -8 56 -123 96 -173 22 -28 35 -53 29 -55 -6 -2 0 -24 17
-57 23 -47 24 -53 8 -46 -41 17 -63 18 -63 1 0 -26 32 -99 59 -135 25 -33 26
-40 26 -178 0 -129 -2 -143 -17 -143 -22 0 -23 -22 -3 -81 7 -24 29 -152 46
-284 32 -237 33 -247 38 -750 l6 -510 29 -52 c16 -29 37 -60 47 -69 16 -14 17
-35 13 -262 -4 -181 -9 -264 -21 -311 -9 -36 -65 -187 -125 -335 -60 -149
-172 -435 -248 -636 -76 -201 -175 -457 -220 -570 -45 -113 -113 -282 -151
-377 -97 -244 -146 -340 -199 -393 -26 -25 -58 -62 -73 -82 -41 -56 -120 -132
-225 -215 -50 -41 -143 -119 -205 -175 -122 -109 -341 -278 -360 -278 -7 0
-116 -52 -244 -117 l-232 -117 -128 -7 c-85 -5 -157 -16 -214 -32 -77 -22 -96
-23 -180 -16 -106 9 -339 63 -354 83 -19 24 -424 177 -655 248 -54 16 -172 77
-190 97 -3 3 -23 18 -45 33 -22 15 -52 38 -66 50 -15 13 -49 42 -75 64 -27 23
-72 64 -100 90 -67 64 -172 162 -268 249 -104 95 -168 207 -271 475 -7 19 -41
93 -74 164 -68 142 -121 261 -121 270 0 4 -9 25 -20 49 -10 23 -31 74 -45 112
-14 39 -31 84 -38 100 -12 29 -96 197 -154 305 -16 30 -37 75 -46 100 -8 25
-29 84 -46 132 -17 47 -39 101 -50 120 -39 68 -54 133 -67 308 -28 366 -35
508 -29 615 13 230 66 793 81 865 26 120 92 370 149 565 74 254 116 445 97
445 -14 0 -37 -30 -65 -84 -21 -39 -28 -46 -33 -32 -6 17 4 52 65 226 32 92
48 170 34 170 -15 0 -75 -97 -98 -162 l-24 -63 0 66 c-1 44 12 118 39 228 22
89 40 169 40 177 0 8 -10 14 -26 14 -24 0 -26 3 -20 28 3 15 9 51 12 80 6 48
5 52 -15 52 -26 0 -26 10 0 115 25 104 23 139 -9 143 -17 3 -22 8 -17 20 22
57 19 64 -65 147 -160 157 -246 321 -302 575 -17 76 -21 137 -23 305 -3 172
-2 195 6 125 30 -277 46 -367 86 -480 38 -109 99 -220 163 -301 66 -82 216
-222 231 -217 4 2 56 49 114 106 72 70 112 101 123 98 9 -2 51 -7 92 -11 184
-15 480 -48 653 -71 104 -15 191 -24 194 -21 3 3 -11 32 -30 64 -153 255 -248
536 -282 838 -9 75 2 68 16 -11 38 -212 158 -518 294 -751 88 -149 100 -163
145 -163 33 0 313 -51 363 -66 15 -5 8 -13 -35 -42 l-53 -36 65 -14 c49 -10
124 -12 310 -9 135 3 253 8 263 12 15 6 13 12 -19 47 -51 57 -134 187 -193
304 -174 345 -236 713 -166 984 73 286 328 674 659 1006 148 147 242 225 362
299 l59 37 -55 -7 c-30 -3 -181 -10 -335 -14 -286 -9 -343 -15 -475 -51 -41
-11 -120 -27 -175 -35 -87 -13 -169 -31 -240 -51 -13 -4 -16 -3 -10 3 14 14
206 79 300 102 132 32 222 43 383 45 83 2 155 6 158 9 10 10 -16 37 -56 57
-70 36 -273 49 -430 29z m525 -168 c-93 -33 -221 -93 -185 -87 14 3 40 2 59
-2 l35 -8 -38 -30 c-38 -32 -94 -44 -202 -44 -33 0 -70 -14 -161 -62 -65 -34
-149 -81 -188 -105 -38 -24 -104 -65 -145 -91 -41 -25 -77 -49 -80 -52 -3 -3
-23 -17 -45 -32 -22 -15 -52 -38 -66 -50 -15 -13 -51 -43 -80 -68 -70 -59
-195 -184 -216 -216 -37 -58 -26 -514 17 -686 40 -160 203 -570 323 -816 49
-100 30 -82 -41 41 -149 255 -247 499 -308 760 -22 98 -27 148 -35 392 -6 154
-8 297 -6 317 9 71 73 131 392 370 181 136 279 199 392 256 33 17 63 35 65 40
3 8 55 29 318 124 209 76 209 76 245 77 21 0 5 -8 -50 -28z m570 -71 c-27 -10
-63 -18 -80 -18 -23 0 -15 4 30 18 78 24 115 24 50 0z m855 -120 c-58 -5 -124
-15 -148 -24 -41 -15 -72 -13 -72 4 0 5 21 12 48 15 26 4 52 8 57 10 6 2 57 3
115 3 l105 -1 -105 -7z m-312 -79 c10 -6 8 -10 -10 -14 -12 -4 -32 -7 -42 -7
-20 0 -20 0 0 15 22 17 34 18 52 6z m2097 -1239 c-8 -8 -43 9 -49 24 -5 12 -1
12 24 -2 16 -10 28 -20 25 -22z m226 -634 c10 -13 18 -38 18 -58 l0 -35 -15
35 c-27 60 -34 80 -28 80 3 0 14 -10 25 -22z m-6084 -1220 c-3 -8 -6 -5 -6 6
-1 11 2 17 5 13 3 -3 4 -12 1 -19z m6073 -1705 c39 -27 49 -45 50 -89 0 -42
-39 -171 -90 -295 -64 -155 -82 -248 -86 -439 -3 -224 -11 -265 -77 -440 -85
-223 -256 -649 -284 -705 -49 -98 -97 -175 -114 -180 -9 -3 -70 12 -134 35
-65 22 -158 47 -207 56 -75 14 -88 19 -82 33 4 9 20 50 35 91 15 41 42 111 59
155 17 44 40 103 50 130 10 28 44 113 75 190 76 188 192 497 211 565 12 41 18
119 21 313 5 241 6 257 24 257 10 0 22 6 26 13 25 38 84 75 132 82 53 7 121
50 151 95 8 13 27 37 41 54 14 17 31 41 38 53 21 40 118 55 161 26z m-6715
-173 c28 -29 77 -73 110 -97 63 -47 73 -61 74 -106 1 -18 8 -30 20 -35 11 -4
38 -35 60 -70 l41 -63 6 -257 c7 -376 21 -610 38 -663 8 -25 26 -70 41 -100
15 -29 38 -81 51 -115 l23 -62 -32 -6 c-17 -4 -49 -18 -70 -32 -21 -14 -40
-24 -42 -22 -21 21 -134 233 -126 237 5 4 9 58 8 131 -1 69 2 157 7 196 l8 70
-81 25 -80 24 5 40 c20 144 38 216 76 293 38 79 40 88 36 160 -3 73 -6 82 -58
167 -52 86 -129 175 -151 175 -18 0 -2 -47 66 -191 70 -146 77 -185 45 -226
-59 -75 -128 -468 -87 -501 6 -5 46 -18 87 -28 l75 -18 0 -131 c0 -88 -3 -128
-10 -121 -14 15 -135 199 -179 273 l-37 62 12 208 c17 306 8 461 -37 658 -20
88 -42 175 -50 194 -8 18 -14 45 -14 58 0 24 3 22 58 -25 31 -28 80 -74 107
-102z m4861 -3387 c-10 -48 -75 -493 -91 -623 -13 -113 -45 -511 -45 -565 0
-14 -15 -33 -45 -54 -71 -51 -209 -185 -319 -311 -197 -224 -576 -627 -757
-805 -192 -189 -469 -420 -523 -437 -17 -5 -69 -16 -115 -23 -46 -8 -88 -19
-95 -24 -6 -5 -43 -12 -82 -16 -83 -8 -89 -4 -134 86 -28 55 -64 109 -207 309
-33 47 -80 123 -103 170 -40 79 -122 201 -142 208 -14 6 -9 22 6 22 30 0 93
45 175 124 127 123 154 150 176 181 11 15 49 47 85 71 58 39 153 112 296 229
71 58 117 99 214 192 89 85 111 105 194 176 27 23 54 47 60 53 6 5 112 86 236
179 124 93 227 171 230 175 5 6 194 149 236 178 57 39 193 136 219 156 17 13
57 38 90 56 55 31 143 88 155 100 3 3 27 24 55 45 27 22 59 48 70 58 51 42
151 116 159 117 4 0 6 -12 2 -27z m134 -657 c83 -55 92 -76 134 -288 46 -231
53 -292 62 -500 5 -131 4 -178 -5 -178 -7 0 -11 -38 -11 -122 -1 -68 -5 -143
-10 -168 -16 -78 -24 -612 -11 -742 10 -105 9 -131 -9 -250 -12 -73 -39 -255
-60 -405 -39 -274 -83 -464 -137 -601 l-25 -62 -87 91 c-166 177 -257 265
-356 344 -27 22 -60 49 -74 60 -13 11 -108 103 -211 205 -102 102 -205 201
-229 220 -113 91 -343 190 -514 221 -37 7 -67 15 -67 19 0 3 9 12 21 20 11 8
31 23 42 33 12 11 39 33 61 50 38 32 440 476 611 677 49 58 178 204 285 325
336 377 401 456 426 512 27 60 28 67 14 58 -14 -8 -13 -3 14 137 24 128 38
207 57 320 7 46 15 66 23 61 6 -3 31 -20 56 -37z m-3545 -339 c8 -53 17 -109
21 -124 l7 -28 -30 28 c-21 19 -40 27 -66 27 l-36 0 28 -42 c33 -50 74 -124
143 -261 27 -53 77 -134 110 -179 57 -76 67 -89 93 -121 6 -7 37 -52 70 -102
33 -49 63 -92 66 -95 4 -3 21 -31 39 -62 17 -32 36 -58 40 -58 5 0 30 -30 56
-67 26 -37 79 -103 117 -147 72 -84 116 -145 185 -258 23 -37 81 -117 130
-178 103 -128 123 -161 104 -168 -7 -2 -70 -42 -140 -89 -70 -47 -180 -119
-245 -160 -196 -124 -396 -281 -615 -483 -51 -47 -98 -87 -104 -89 -14 -5 -28
18 -28 46 0 12 -5 23 -10 25 -6 2 -18 28 -26 58 -13 43 -18 136 -24 425 -6
278 -15 431 -34 615 -14 135 -35 353 -46 485 -11 132 -30 294 -42 360 -12 66
-23 174 -26 241 l-4 120 39 63 c21 35 47 77 57 94 60 98 149 227 154 222 1 -1
9 -45 17 -98z m3916 -137 c23 -41 64 -115 92 -165 28 -49 107 -180 177 -290
70 -110 200 -324 290 -475 164 -275 338 -541 526 -805 55 -77 152 -216 214
-310 114 -169 175 -247 285 -360 49 -52 95 -126 95 -155 0 -9 -33 -16 -112
-23 l-48 -5 -92 132 c-50 72 -179 247 -285 390 -315 420 -472 669 -668 1056
-57 113 -112 214 -122 225 -10 11 -36 43 -58 70 -50 63 -63 79 -114 138 -22
26 -46 57 -51 68 -9 16 -22 19 -80 19 l-70 0 0 46 c0 25 -5 134 -11 242 -9
164 -15 209 -35 267 l-24 70 25 -30 c13 -17 43 -64 66 -105z m744 -711 c247
-234 420 -387 611 -540 182 -146 300 -232 524 -383 202 -137 245 -168 568
-424 241 -191 409 -312 782 -561 184 -123 422 -289 530 -369 107 -81 272 -197
365 -258 94 -61 211 -141 260 -177 50 -35 119 -79 154 -97 36 -18 82 -44 103
-58 l38 -25 -53 -22 c-57 -23 -105 -53 -147 -91 l-25 -23 -63 93 c-34 51 -76
105 -92 121 -17 16 -30 34 -30 41 0 12 -113 115 -140 127 -8 4 -33 21 -55 38
-22 16 -58 41 -80 56 -22 14 -57 41 -77 61 -21 20 -38 33 -38 29 0 -4 -20 8
-45 27 -73 56 -259 141 -437 200 -266 87 -426 162 -614 286 -41 27 -79 50 -83
50 -4 0 -25 15 -47 33 -21 18 -70 55 -109 82 -38 27 -84 60 -101 74 -17 14
-47 38 -65 53 -19 14 -72 57 -119 94 -110 88 -109 87 -123 99 -7 6 -43 35 -82
65 -38 30 -75 59 -81 65 -6 5 -22 17 -34 25 -12 8 -31 23 -42 33 -12 9 -25 17
-29 17 -4 0 -14 6 -21 13 -37 36 -91 57 -147 57 -57 0 -61 2 -148 68 -48 37
-106 79 -128 94 -104 71 -303 240 -330 279 -17 24 -34 49 -40 55 -12 14 -20
26 -92 134 -30 47 -108 175 -171 285 -64 110 -119 202 -122 205 -3 3 -25 39
-50 80 -50 85 -150 229 -218 310 -25 30 22 -10 104 -90 82 -80 190 -184 239
-231z m-5006 -20 c1 -31 -4 -51 -15 -60 -9 -7 -26 -33 -38 -59 -65 -135 -397
-707 -608 -1047 -93 -150 -358 -601 -358 -609 0 -11 -102 -178 -124 -202 -22
-25 -67 -52 -86 -52 -34 0 11 115 98 250 87 135 168 271 382 635 103 176 227
388 276 471 49 83 172 297 274 475 l185 325 7 -41 c3 -22 7 -61 7 -86z m8
-141 c-3 -8 -6 -5 -6 6 -1 11 2 17 5 13 3 -3 4 -12 1 -19z m2352 -1004 c2 -2
-12 -4 -32 -4 -30 0 -37 4 -37 20 0 20 1 20 33 4 17 -9 34 -18 36 -20z m131
-141 c6 -21 14 -92 17 -158 l5 -120 -55 -122 c-30 -67 -67 -158 -82 -202 -18
-54 -43 -101 -78 -148 -28 -37 -90 -124 -137 -193 -103 -151 -120 -160 -138
-72 l-12 60 35 53 c19 30 38 59 43 64 40 53 185 331 251 481 68 156 81 212 81
343 l1 116 29 -32 c16 -18 34 -49 40 -70z m-1320 -223 c0 -11 -4 -20 -9 -20
-5 0 -7 9 -4 20 3 11 7 20 9 20 2 0 4 -9 4 -20z m1691 -268 c41 -26 113 -71
160 -100 47 -28 111 -77 142 -108 67 -67 84 -105 202 -444 45 -130 96 -262
112 -295 17 -33 34 -70 37 -82 5 -16 -44 -178 -164 -540 -94 -285 -221 -684
-281 -888 -61 -203 -122 -408 -136 -455 l-26 -85 -34 100 c-18 55 -32 108 -29
118 2 9 1 15 -3 12 -5 -2 -32 72 -60 166 -75 242 -137 493 -295 1189 -60 262
-122 503 -148 570 -11 30 -29 84 -38 120 -10 36 -24 84 -31 106 -13 42 -12 42
40 120 62 91 90 130 113 158 9 12 39 50 68 86 28 36 77 92 108 125 31 33 74
80 95 105 34 40 70 69 88 70 4 0 40 -22 80 -48z m-1863 -297 c49 -99 108 -237
132 -307 l42 -126 -35 -84 c-53 -124 -317 -830 -377 -1008 -29 -85 -76 -237
-105 -337 -28 -101 -55 -180 -58 -176 -4 3 -7 40 -7 82 0 199 -46 977 -75
1266 -15 144 -50 405 -62 453 -4 17 -1 22 14 22 13 0 34 21 59 58 21 31 52 71
70 87 45 44 167 152 200 177 16 12 31 25 34 28 7 8 74 49 77 47 1 -1 42 -83
91 -182z m141 80 c0 -5 -8 6 -19 25 -11 19 -19 40 -19 45 0 6 8 -6 19 -25 11
-19 19 -39 19 -45z m4273 45 c9 -17 13 -30 8 -30 -5 0 -16 14 -25 30 -20 39
-5 39 17 0z m110 -312 c30 -40 89 -119 131 -176 l77 -104 0 -67 c0 -110 -20
-156 -159 -364 -70 -106 -147 -226 -172 -267 -143 -234 -472 -771 -570 -930
-165 -266 -436 -741 -623 -1092 -103 -193 -75 -123 79 197 110 229 163 350
230 530 118 317 196 483 374 795 43 74 102 187 132 250 30 63 86 178 125 255
39 77 91 185 114 240 52 123 161 341 227 456 l50 85 -38 115 c-35 105 -45 149
-35 149 2 0 29 -33 58 -72z m-4216 -113 c16 -39 16 -40 -3 -22 -11 9 -25 34
-31 54 -10 31 -9 35 3 22 8 -8 22 -32 31 -54z m869 -389 c18 -134 152 -748
241 -1097 109 -433 205 -706 346 -981 l80 -158 -143 -506 c-165 -579 -157
-568 -159 -209 l-2 220 -17 -55 c-23 -75 -31 -49 -31 102 0 66 -7 159 -15 207
-33 197 -46 289 -74 546 -17 149 -36 315 -42 370 -6 55 -24 169 -40 253 -30
158 -38 222 -89 667 -50 443 -61 507 -150 855 -10 38 -6 46 25 52 18 3 22 -8
42 -106 12 -60 25 -133 28 -160z m-2965 170 c0 -6 8 -19 19 -30 10 -12 26 -43
34 -71 47 -147 151 -723 293 -1620 160 -1011 196 -1239 219 -1375 14 -81 25
-154 24 -161 -1 -30 -204 711 -260 950 -106 455 -200 967 -258 1416 -27 204
-39 314 -81 725 -6 58 -15 125 -20 150 -4 24 -6 48 -3 53 5 9 32 -22 33 -37z
m2154 -17 c3 -34 4 -64 2 -68 -5 -8 -86 -286 -121 -415 -35 -132 -132 -441
-204 -656 -33 -96 -73 -225 -90 -286 -36 -127 -103 -298 -156 -396 -48 -90
-95 -227 -96 -285 -2 -47 -16 47 -37 236 l-9 75 144 395 c304 836 457 1281
483 1406 11 53 12 55 44 55 l33 0 7 -61z m-607 -2751 c-3 -7 -5 -2 -5 12 0 14
2 19 5 13 2 -7 2 -19 0 -25z m10 -55 c-3 -10 -5 -4 -5 12 0 17 2 24 5 18 2 -7
2 -21 0 -30z m10 -65 c-3 -7 -5 -2 -5 12 0 14 2 19 5 13 2 -7 2 -19 0 -25z
m10 -50 c-3 -8 -6 -5 -6 6 -1 11 2 17 5 13 3 -3 4 -12 1 -19z m-999 -508 c66
-146 72 -164 96 -309 25 -147 27 -192 8 -140 -5 13 -19 51 -32 84 -24 67 -112
357 -136 450 -27 107 -26 101 -15 85 5 -8 41 -85 79 -170z m19 148 c-3 -8 -6
-5 -6 6 -1 11 2 17 5 13 3 -3 4 -12 1 -19z m2383 -1343 c-7 -25 -15 -44 -17
-42 -2 3 2 25 9 50 6 26 14 44 16 42 3 -2 -1 -25 -8 -50z m1339 -1119 c-6 -26
-13 -45 -16 -43 -2 3 1 26 8 51 6 26 13 45 16 43 2 -3 -1 -26 -8 -51z"/>
<path d="M15072 14355 c-22 -19 -54 -62 -72 -97 -40 -74 -157 -249 -199 -298
-17 -19 -36 -50 -42 -69 -18 -53 -5 -243 21 -321 19 -56 22 -86 21 -217 -1
-83 -4 -160 -8 -171 -5 -11 -46 -45 -93 -77 -173 -117 -191 -146 -167 -273 9
-48 19 -124 23 -169 6 -79 24 -127 40 -110 16 16 23 137 13 246 l-10 115 38
37 c21 20 65 52 96 70 32 19 75 44 95 56 24 14 39 32 43 50 4 15 7 109 8 209
1 141 -3 205 -19 290 -27 152 -26 200 8 245 15 20 56 73 90 119 74 98 166 250
188 311 8 24 20 46 26 50 18 11 -10 39 -38 39 -13 0 -41 -16 -62 -35z"/>
<path d="M13659 19311 l-22 -18 63 -21 c105 -36 116 -26 30 27 -48 29 -49 30
-71 12z"/>
<path d="M9484 19274 c-52 -25 -79 -45 -101 -76 -60 -85 -55 -90 25 -21 44 38
101 80 126 94 45 23 59 40 34 38 -7 0 -45 -16 -84 -35z"/>
<path d="M8293 18095 c0 -22 2 -30 4 -17 2 12 2 30 0 40 -3 9 -5 -1 -4 -23z"/>
<path d="M9874 15456 c-17 -8 -34 -21 -37 -29 -5 -14 -78 -70 -345 -266 -119
-87 -125 -97 -120 -172 l3 -44 57 -3 c48 -2 66 2 104 24 44 26 53 27 154 25
74 -2 118 2 141 12 43 17 212 14 389 -8 69 -8 184 -22 255 -31 235 -29 298
-33 343 -23 65 14 107 2 208 -58 50 -30 115 -63 144 -74 l53 -20 -6 31 -7 30
30 -15 c16 -8 39 -15 51 -15 19 0 21 4 15 31 l-6 30 28 -19 c15 -11 37 -23 50
-26 20 -7 22 -4 22 24 0 27 3 30 20 25 20 -6 20 -5 6 32 -8 21 -17 52 -21 68
-4 18 -28 51 -62 83 -52 49 -85 64 -98 42 -3 -5 -19 -1 -38 10 -43 27 -61 26
-47 0 16 -30 2 -24 -60 24 -64 50 -215 139 -310 183 -79 37 -118 47 -290 78
-74 13 -178 33 -230 44 -115 25 -345 29 -396 7z"/>
<path d="M12988 15255 c-2 -3 -83 -12 -178 -20 -96 -8 -190 -20 -210 -25 -20
-5 -66 -30 -103 -55 -37 -24 -67 -40 -67 -35 0 24 -44 6 -101 -42 -35 -28 -60
-44 -56 -35 8 21 4 21 -41 -2 -54 -28 -189 -199 -192 -243 0 -14 33 -8 53 10
19 17 20 16 8 -7 -9 -15 -10 -26 -3 -33 6 -6 62 -10 134 -9 94 2 144 7 213 26
50 13 137 31 195 40 58 9 166 28 240 42 124 23 147 25 280 17 216 -12 439 -10
482 5 32 10 54 10 140 -5 l103 -17 57 -60 c32 -33 60 -67 63 -77 3 -9 24 -32
46 -50 23 -18 48 -48 56 -67 8 -20 16 -33 18 -31 3 2 12 39 21 82 14 67 14 80
1 99 -8 12 -19 45 -25 72 -14 64 -43 129 -81 180 -16 22 -44 61 -61 86 -27 40
-44 52 -118 84 -48 20 -96 41 -107 46 -39 17 -243 29 -501 29 -143 0 -263 -2
-266 -5z"/>
<path d="M12041 14923 c-50 -58 -59 -73 -42 -73 11 0 111 108 111 121 0 21
-21 6 -69 -48z"/>
<path d="M10128 14876 c-81 -31 -175 -82 -166 -91 2 -3 27 2 55 9 86 23 257
39 350 34 95 -6 221 -42 284 -83 20 -13 69 -40 110 -60 96 -49 206 -139 261
-214 44 -62 65 -78 80 -63 21 21 -158 234 -271 323 -24 19 -82 50 -130 70 -47
19 -106 45 -131 56 -86 40 -150 53 -254 53 -90 -1 -111 -4 -188 -34z"/>
<path d="M13065 14799 c-112 -15 -289 -65 -378 -107 -94 -45 -228 -141 -275
-198 -43 -52 -22 -56 36 -7 78 66 122 90 225 122 116 37 138 39 77 6 -45 -23
-143 -125 -252 -260 -31 -38 -73 -89 -93 -112 -46 -54 -31 -55 30 -3 25 22 67
52 93 67 26 15 63 38 82 53 19 14 60 44 90 66 55 39 55 39 36 9 -25 -38 -34
-184 -16 -250 18 -63 90 -129 156 -143 77 -16 311 0 357 24 105 55 135 79 161
127 27 46 28 54 24 153 -2 57 0 104 4 104 11 0 78 -41 134 -81 50 -37 104 -93
104 -109 0 -12 -144 -108 -205 -136 -54 -25 -65 -37 -45 -49 11 -7 213 56 264
82 28 14 30 14 53 -16 14 -17 28 -31 33 -31 4 0 11 36 15 80 l7 79 -43 88
c-62 125 -136 197 -272 263 -87 42 -117 52 -192 61 -48 5 -95 7 -104 5 -9 -3
-61 -7 -116 -9 l-100 -4 90 18 c163 33 237 34 345 5 190 -50 257 -75 309 -116
70 -55 66 -27 -6 47 -67 69 -143 120 -228 153 -50 19 -82 24 -195 26 -74 1
-166 -2 -205 -7z m-168 -145 c-3 -3 -12 -4 -19 -1 -8 3 -5 6 6 6 11 1 17 -2
13 -5z m-60 -10 c-3 -3 -12 -4 -19 -1 -8 3 -5 6 6 6 11 1 17 -2 13 -5z"/>
<path d="M10260 14740 c-96 -6 -144 -14 -210 -35 -73 -24 -169 -76 -178 -95
-1 -4 -34 -59 -73 -124 -39 -65 -68 -121 -65 -123 8 -8 66 18 66 28 0 5 5 9
10 9 6 0 10 -13 10 -30 0 -35 42 -87 109 -133 51 -36 189 -89 197 -76 2 4 -32
45 -76 90 -45 45 -92 96 -105 113 l-24 32 52 34 c51 34 126 80 132 80 1 0 5
-25 8 -55 3 -31 15 -76 27 -100 25 -52 99 -128 154 -158 21 -12 48 -28 60 -34
29 -18 174 -16 225 2 23 8 42 14 44 14 20 -4 64 21 87 51 40 51 60 110 60 181
0 33 4 59 8 59 15 0 128 -153 173 -234 49 -87 75 -119 90 -110 23 14 -22 156
-92 295 -38 76 -133 189 -159 189 -5 0 -29 13 -53 30 -57 38 -225 96 -297 102
-30 3 -111 2 -180 -2z"/>
<path d="M9810 14699 c-19 -15 -30 -28 -25 -28 13 0 71 47 65 53 -3 2 -21 -9
-40 -25z"/>
<path d="M9390 14580 c0 -12 23 -28 53 -35 20 -5 27 -4 27 8 0 9 -16 19 -40
25 -22 5 -40 6 -40 2z"/>
<path d="M9653 14565 c-50 -40 -156 -68 -233 -62 l-65 5 69 -33 68 -33 79 54
c44 30 86 54 94 54 8 0 19 9 25 20 14 27 2 25 -37 -5z"/>
<path d="M13789 14463 c-3 -23 5 -61 19 -88 8 -16 18 -43 22 -60 3 -18 16 -35
30 -42 30 -15 184 -17 211 -3 31 17 23 38 -17 46 -36 7 -137 0 -166 -11 -10
-4 -18 5 -26 32 -6 21 -16 55 -22 76 -10 33 -48 70 -51 50z"/>
<path d="M11156 14422 c-3 -21 1 -94 9 -162 23 -191 20 -230 -16 -303 -38 -74
-71 -168 -63 -176 10 -10 63 61 114 154 38 68 50 100 50 133 0 49 -44 316 -59
354 -15 41 -28 41 -35 0z"/>
<path d="M14050 14409 c-19 -11 -26 -17 -15 -13 11 3 30 9 43 11 12 3 25 9 28
14 9 15 -19 9 -56 -12z"/>
<path d="M9392 14366 c9 -11 119 -38 125 -32 3 3 -6 10 -21 16 -35 13 -113 25
-104 16z"/>
<path d="M12010 14294 c0 -86 120 -515 171 -614 49 -93 45 -61 -16 125 -53
162 -79 255 -105 370 -11 50 -22 100 -25 113 -6 25 -25 30 -25 6z"/>
<path d="M13934 14181 c44 -46 172 -56 164 -13 -2 12 -23 20 -78 28 -117 19
-119 19 -86 -15z"/>
<path d="M9740 14187 c0 -30 52 -114 85 -136 47 -31 55 -21 20 26 -47 63 -105
123 -105 110z"/>
<path d="M10395 13890 c-77 -11 -178 -26 -225 -34 -47 -8 -110 -18 -140 -21
-30 -4 -62 -11 -70 -15 -58 -32 203 -22 380 14 69 14 159 26 200 26 80 1 153
21 115 33 -51 15 -131 14 -260 -3z"/>
<path d="M12755 13845 c79 -66 229 -137 318 -150 40 -6 47 -5 47 9 0 9 -18 25
-42 36 -68 31 -327 130 -341 130 -6 0 2 -11 18 -25z"/>
<path d="M12374 13285 c4 -13 2 -14 -14 -5 -17 9 -20 8 -20 -10 0 -28 36 -96
76 -146 21 -26 34 -52 34 -70 0 -34 -55 -203 -74 -229 -7 -11 -64 -37 -126
-59 -63 -23 -115 -47 -118 -53 -5 -18 60 -17 128 2 30 8 78 20 107 26 29 7 58
19 66 28 25 30 70 165 76 226 l6 60 29 -50 c16 -27 61 -80 99 -117 68 -66 208
-178 223 -178 4 0 -30 40 -77 88 -106 111 -168 190 -230 294 -71 122 -89 145
-137 178 -49 34 -57 36 -48 15z"/>
<path d="M11080 13200 c-19 -10 -48 -36 -65 -58 -16 -22 -64 -82 -105 -134
-87 -107 -199 -264 -207 -287 -5 -17 34 24 120 126 28 34 56 62 60 62 15 1 81
53 115 90 36 40 35 32 -7 -59 -41 -90 -22 -153 69 -229 90 -75 130 -93 225
-99 99 -6 152 9 161 43 10 39 -2 45 -97 45 -101 0 -141 12 -203 64 -109 90
-118 104 -105 170 5 27 13 54 18 60 9 12 71 199 71 216 0 13 -8 11 -50 -10z"/>
<path d="M12130 12975 c-42 -19 -87 -60 -106 -97 -22 -42 -18 -50 17 -43 30 7
120 14 234 18 l60 2 3 45 c3 41 0 47 -28 64 -43 25 -136 31 -180 11z"/>
<path d="M11242 12934 c-47 -32 -71 -127 -36 -141 9 -3 52 -1 96 6 89 14 110
7 157 -52 14 -16 47 -40 75 -53 43 -20 67 -24 154 -24 88 0 111 4 165 26 60
25 107 58 107 76 0 19 -56 6 -114 -27 -43 -24 -81 -37 -122 -41 -57 -6 -61 -5
-100 27 -22 19 -61 45 -87 59 -26 14 -47 31 -47 38 0 19 -58 100 -80 112 -30
16 -142 12 -168 -6z"/>
<path d="M10513 12427 c-119 -197 -194 -380 -166 -408 6 -6 15 11 27 53 16 56
126 289 190 398 14 25 26 48 26 53 0 23 -22 -4 -77 -96z"/>
<path d="M12863 12282 c-6 -4 -13 -20 -15 -36 -3 -27 -10 -31 -85 -56 -45 -15
-103 -40 -130 -55 -62 -36 -173 -118 -173 -127 0 -14 35 -8 74 12 90 45 301
101 396 103 60 2 65 4 68 25 8 54 -53 142 -97 142 -14 0 -31 -4 -38 -8z"/>
<path d="M12420 12119 c-19 -5 -105 -13 -190 -19 -154 -9 -294 -34 -368 -66
-20 -9 -52 -20 -70 -24 -46 -11 -154 6 -205 32 -38 19 -48 20 -106 10 -90 -15
-102 -32 -23 -32 58 0 64 -2 94 -35 37 -40 94 -55 204 -55 75 0 99 8 141 48
17 17 51 41 75 54 39 21 54 23 168 21 69 -2 158 2 199 7 73 10 147 43 135 61
-6 10 -6 10 -54 -2z"/>
<path d="M10673 12083 c-35 -39 -50 -74 -38 -92 9 -16 46 -13 65 4 14 13 21
11 60 -15 25 -17 52 -30 61 -30 8 0 65 -25 126 -55 61 -30 142 -64 180 -75 37
-12 95 -32 128 -45 167 -67 311 -82 438 -46 37 11 143 34 235 51 92 18 172 35
177 39 6 4 37 15 70 26 105 33 115 54 14 30 -35 -9 -145 -20 -244 -25 -99 -5
-223 -17 -275 -26 -163 -28 -170 -27 -410 69 -189 75 -316 118 -467 157 -33 8
-41 14 -36 27 6 15 -20 43 -40 43 -5 0 -25 -17 -44 -37z"/>
<path d="M11125 11661 c22 -43 105 -125 167 -165 77 -49 153 -66 296 -66 126
0 267 20 447 64 95 23 202 62 194 70 -2 2 -53 -9 -114 -25 -126 -33 -340 -58
-530 -61 l-130 -3 -69 39 c-90 50 -122 73 -189 129 -30 26 -62 47 -71 47 -15
0 -15 -3 -1 -29z"/>
</g>
</svg>
